<?xml version="1.0" encoding="UTF-8"?>
<svg xmlns="http://www.w3.org/2000/svg" viewBox="0 0 6000 4000">
  <defs>
    <style>
      .st0 {
        fill: none;
        stroke: rgba(255,255,255,0.4);
        stroke-width: .3px;
      }
      .st2 {
        fill: #00b2b2;
      }
    </style>
  </defs>
  <path fill="white" d="M1171.77,529.45c15.84,62.9,31.52,124.8,46.99,186.75,15.48,61.99,30.67,124.06,46.14,186.06,15.47,62,31.19,123.93,46.71,185.92,15.52,61.99,30.92,124.01,46.38,186.02,15.46,62.01,30.78,124.05,46.42,186.01,15.6,61.78,30.68,123.71,46.75,186.12,7.31-4.37,9.29-10.27,12.28-15.23,168.03-278.22,335.97-556.49,503.93-834.75,50.25-83.25,100.5-166.5,150.75-249.76,2.41-3.99,4.68-8.07,7.18-12,2.29-3.6,5.48-5.47,9.99-5.15,3.98.28,7.99.02,11.99.02,187.29,0,374.58,0,561.88,0,5.75,0,11.49.1,18.04.17-.81,8.62-5.77,13.45-9.17,18.84-71.11,112.65-142.36,225.22-213.56,337.81-208.28,329.34-416.55,658.68-624.82,988.01q-13.1,20.71-36.5,26.3c-230.37,55.62-460.72,111.27-691.09,166.89-42.06,10.15-84.14,20.24-126.24,30.24-10.92,2.59-11.13,2.43-13.92-7.46-7.96-28.18-15.8-56.4-23.64-84.62-79.53-286.01-159.09-572.02-238.57-858.05-55.6-200.09-110.98-400.24-166.84-600.25-6.11-21.89-1.93-17.83,14.39-17.84,185.96-.09,371.92-.05,557.88-.05h16.66Z"/>
  <path fill="white" d="M3159.34,2597.36c-181.48,0-361.39,0-541.3-.07-1.84,0-3.67-1.08-6.15-1.86,3.12-18.56,6.08-36.93,9.3-55.26,17.09-97.06,34.2-194.11,51.39-291.14,16.72-94.41,33.57-188.81,50.29-283.22,5.92-33.44,12.01-66.86,17.16-100.42,1.45-9.48,5.79-13.6,14.43-16.22,58.6-17.78,117.08-35.91,175.6-53.94,124.68-38.4,249.35-76.81,374.03-115.2,4.44-1.37,8.88-2.9,13.44-3.58,2.74-.41,4.89,1.17,4.25,4.82-5.15,29.52-10.14,59.07-15.34,88.58-12.73,72.13-25.55,144.24-38.32,216.37-12.88,72.78-25.78,145.56-38.6,218.35-12.59,71.48-25.1,142.97-37.64,214.46-9.66,55.09-19.29,110.19-29.01,165.27-.69,3.91-2.06,7.69-3.54,13.06Z"/>
  <path fill="white" d="M2773.58,1677.51c56.32-319.94,112.06-636.63,167.88-953.3.44-2.52,1.85-4.87,3.23-8.38,11.84,15.51,22.75,30.44,34.34,44.81,11.74,14.56,25.32,27.41,39.7,39.37,14.89,12.38,30.65,23.52,47.47,33.14,16.22,9.28,33.07,17.19,50.57,23.75,17.5,6.57,35.48,11.61,53.81,15.01,18.34,3.41,36.86,5.68,55.61,5.62,18.67-.06,37.24-.55,55.79-3.41,18.5-2.86,36.59-7.08,54.38-12.74,18.45-5.87,36.15-13.5,53.29-22.49,16.57-8.69,32.15-18.89,47.05-30.17,14.7-11.13,28.12-23.78,42.66-38.35,2.36,7.67.99,12.72.14,17.54-9.77,55.76-19.71,111.49-29.56,167.23-11.35,64.27-22.64,128.55-33.98,192.83-12.73,72.14-25.53,144.27-38.24,216.42-8.78,49.85-17.36,99.73-26.26,149.56-1.5,8.38-.19,18.89-6.71,24.3-5.58,4.63-14.8,5.05-22.5,6.91-174.05,42.22-348.11,84.39-522.17,126.54-7.66,1.85-15.4,3.39-26.49,5.81Z"/>
  <path class="st2" d="M3232.37,842.61c-153.61,2.02-299.26-123.14-299.14-300.4.11-163.39,130.4-299.79,300.69-299.14,179.57.69,300.03,148.81,299.33,300.69-.76,164.77-136.45,301.04-300.87,298.85Z"/>
  <path fill="white" d="M1686.55,2178.73c-3.22,5.33-6.2,10.46-9.37,15.48-86.08,136.21-172.18,272.42-258.28,408.62-1.78,2.81-3.87,5.46-5.36,8.42-3.34,6.67-8.26,9.12-15.94,9.1-75.95-.27-151.91-.13-227.86-.2-10.25,0-10.67-.36-13.55-10.66-20.03-71.78-40.11-143.55-59.8-215.42-2.92-10.67-8.3-20.95-6.97-32.58,9.16-5.8,19.84-7.4,29.91-10.52,182.42-56.45,364.89-112.75,547.44-168.81,6.04-1.85,12-6.31,19.78-3.44Z"/>
  <path fill="white" d="M5085.01,1127.53s.04-.02.04-.02c-.1-.3-238.81,52.68-248.26,55.08-.69.17-2.94.77-4.9-.32-1.26-.7-2.18-1.96-2.79-3.74-.85-2.51-1.06-5.23-1.78-7.78-13.25-46.61-41.49-81.45-83.52-105.06-34.98-19.66-72.96-29.2-112.89-29.48-77.99-.54-155.98-.2-233.97-.23-1.33,0-2.67-.03-4,.04-7,.4-8,1-9.24,7.67-3.9,20.95-7.67,41.92-11.37,62.91-10.86,61.65-21.83,123.28-32.3,184.99-1.49,8.77-5.54,11.96-13.84,13.93-116.61,27.63-233.12,55.64-349.67,83.51-64.1,15.33-128.22,30.59-192.33,45.87-3.88.93-7.75,1.96-11.68,2.63-5.37.92-7.29-1.01-6.37-6.3,9.17-52.48,18.35-104.96,27.6-157.43,12.71-72.14,25.51-144.26,38.23-216.4,12.6-71.49,25.14-142.98,37.73-214.47,12.82-72.8,25.66-145.59,38.52-218.38,5.1-28.85,10.23-57.7,15.5-86.53,1.34-7.33,2.03-7.77,8.96-8.06,4.66-.2,9.33-.07,14-.07,249.96,0,499.93.08,749.89-.05,73.66-.04,146.3,7.76,217.39,27.49,111.98,31.09,210.8,85.35,292.35,168.96,81.31,83.36,132.57,182.57,154.13,297.06,19.77,104.97,11.09,208.3-18.7,310.21-36.55,125.01-101.03,234.51-188.05,330.68-131.2,145-291.18,243.86-480.22,294.89-52.84,14.26-106.67,23.11-161.32,27.11-26.62,1.95-53.22,2.66-79.88,2.63-65.32-.06-130.65-.02-195.97-.02h-18.98c-2.91,15.2-5.81,29.35-8.31,43.57-20.61,117.41-41.11,234.84-61.72,352.24-11.75,66.9-23.66,133.77-35.49,200.66-.35,1.97-.61,3.95-1.04,5.9-.78,3.61-2.93,5.99-6.71,6.17-4.66.23-9.33.13-13.99.13-169.98,0-339.95.02-509.93-.05-5.91,0-11.99,1.15-18.98-1.91,2.51-15.27,4.9-30.84,7.64-46.34,23.44-132.46,46.99-264.9,70.42-397.36,24-135.74,47.92-271.5,71.83-407.25,10.98-62.3,22.12-124.58,32.56-186.98,1.67-9.98,5.45-14.51,15.33-17.51,92.98-28.27,185.75-57.22,278.62-85.88,89.68-27.67,179.4-55.24,269.11-82.82,5.56-1.71,11.24-3.07,18.02-4.9.93,9.09-.96,16.79-2.31,24.49-4.73,26.89-9.65,53.75-14.24,80.66-1.63,9.57-.71,10.5,8.69,10.62,41.99.5,83.98.99,125.97,1.32,31.99.25,63.99.37,95.99.36,56.47-.02,109.58-13.18,158.31-42.08,59.49-35.29,102.13-84.69,124.34-150.8,7.92-23.56,11.98-47.72,11.79-72.63-.04-5.16.02-7.83,1.31-9.58,2.72-3.69,7.93-4.07,9.05-4.19,9.07-.99,74.97-21.47,178.66-54.89,20.93-7.42,41.87-14.84,62.8-22.26Z"/>
  <path fill="#00b2b2" d="M1320.77 2981.41L1339.05 2886.57L989.42 2886.57L870.21 3500.52L1219.84 3500.52L1238.50 3404.54L987.90 3404.54L1021.03 3234.68L1235.84 3234.68L1254.50 3138.70L1039.70 3138.70L1070.16 2981.41 M1554.19 3510.80C1674.54 3510.80 1758.33 3441.87 1776.99 3348.18C1794.89 3261.72 1740.81 3202.69 1654.36 3152.03C1601.04 3121.56 1543.15 3096.05 1553.05 3042.35C1559.90 3004.26 1597.61 2969.98 1647.12 2969.98C1693.97 2969.98 1733.96 2997.40 1745 3040.82L1823.46 2987.88C1807.84 2924.28 1744.24 2875.53 1661.21 2875.53C1560.67 2875.53 1475.73 2936.47 1457.83 3022.92C1436.89 3124.99 1506.20 3174.12 1566 3209.16C1612.84 3236.58 1691.68 3278.48 1679.11 3342.08C1669.59 3388.93 1618.18 3413.68 1567.52 3413.68C1510.77 3413.68 1463.55 3384.36 1433.08 3326.85L1355.38 3380.55C1383.19 3455.20 1450.22 3510.80 1554.19 3510.80 M1877.11 3500.52L1976.14 3500.52L2017.65 3287.62L2102.20 3287.62C2248.07 3287.62 2341 3209.54 2358.14 3093C2377.18 2964.65 2290.35 2886.57 2179.90 2886.57L1996.32 2886.57M2120.48 3192.40L2036.31 3192.02L2077.07 2982.17L2161.62 2982.17C2223.32 2982.17 2273.21 3024.06 2263.31 3092.24C2253.78 3152.80 2203.13 3192.79 2120.48 3192.40 M2667.35 3513.09C2835.69 3521.09 2989.18 3388.17 3017.36 3200.02C3044.40 3021.02 2945.76 2885.05 2783.13 2877.81C2612.51 2869.82 2460.55 3007.31 2433.12 3195.07C2406.84 3372.93 2506.25 3505.47 2667.35 3513.09M2684.87 3416.35C2577.85 3413.68 2511.20 3318.09 2532.15 3195.45C2553.09 3069.77 2656.31 2971.51 2765.23 2973.79C2871.11 2976.08 2940.05 3072.81 2918.72 3198.12C2897.01 3323.80 2793.80 3419.02 2684.87 3416.35 M3569.94 3085C3590.13 2958.94 3494.91 2886.57 3391.32 2886.57L3214.22 2886.57L3095.39 3500.52L3194.42 3500.52L3240.50 3262.86L3318.96 3262.86L3435.50 3500.52L3544.43 3500.52L3416.08 3255.25C3499.48 3233.16 3556.23 3167.65 3569.94 3085M3470.92 3082.72C3462.16 3137.56 3412.65 3182.88 3336.10 3182.88L3255.73 3182.88L3294.96 2982.17L3375.32 2982.17C3434.36 2982.17 3480.06 3021.78 3470.92 3082.72 M4142.33 2886.57L3734.81 2886.57L3716.15 2982.17L3870.78 2982.17L3769.85 3500.52L3868.87 3500.52L3969.80 2982.17L4123.67 2982.17 M4597.41 2981.41L4615.69 2886.57L4266.06 2886.57L4146.85 3500.52L4496.48 3500.52L4515.14 3404.54L4264.54 3404.54L4297.67 3234.68L4512.48 3234.68L4531.14 3138.70L4316.34 3138.70L4346.80 2981.41 M4830.83 3510.80C4951.18 3510.80 5034.97 3441.87 5053.63 3348.18C5071.53 3261.72 5017.45 3202.69 4931 3152.03C4877.68 3121.56 4819.79 3096.05 4829.69 3042.35C4836.54 3004.26 4874.25 2969.98 4923.76 2969.98C4970.61 2969.98 5010.60 2997.40 5021.64 3040.82L5100.10 2987.88C5084.48 2924.28 5020.88 2875.53 4937.85 2875.53C4837.31 2875.53 4752.37 2936.47 4734.47 3022.92C4713.53 3124.99 4782.84 3174.12 4842.64 3209.16C4889.48 3236.58 4968.32 3278.48 4955.75 3342.08C4946.23 3388.93 4894.82 3413.68 4844.16 3413.68C4787.41 3413.68 4740.19 3384.36 4709.72 3326.85L4632.02 3380.55C4659.83 3455.20 4726.86 3510.80 4830.83 3510.80"/>
  <g>
    <line class="st0" x1="2018.96" y1="2930.83" x2="2018.96" y2="2966.83"/>
    <line class="st0" x1="1964.96" y1="2984.83" x2="2000.96" y2="2984.83"/>
    <line class="st0" x1="1964.96" y1="3189.04" x2="2000.96" y2="3189.04"/>
    <line class="st0" x1="2018.96" y1="3243.04" x2="2018.96" y2="3207.04"/>
    <line class="st0" x1="2259.13" y1="2930.83" x2="2259.13" y2="2966.83"/>
    <line class="st0" x1="2313.13" y1="2984.83" x2="2277.13" y2="2984.83"/>
    <line class="st0" x1="2313.13" y1="3189.04" x2="2277.13" y2="3189.04"/>
    <line class="st0" x1="2259.13" y1="3243.04" x2="2259.13" y2="3207.04"/>
  </g>
</svg>
